<svg xmlns="http://www.w3.org/2000/svg" width="480" height="520" viewBox="0 0 480 520" role="img" aria-labelledby="title desc">
  <title id="title">Nixette Mascot Badge</title>
  <desc id="desc">Chibi penguin mascot with trans flag hair, blending Nix and Gentoo motifs.</desc>
  <defs>
    <linearGradient id="bgGrad" x1="0" y1="0" x2="0" y2="1">
      <stop offset="0%" stop-color="#312E81" />
      <stop offset="100%" stop-color="#1E1B4B" />
    </linearGradient>
    <linearGradient id="hairLeft" x1="0" y1="0" x2="1" y2="1">
      <stop offset="0%" stop-color="#55CDFC" />
      <stop offset="100%" stop-color="#0EA5E9" />
    </linearGradient>
    <linearGradient id="hairRight" x1="1" y1="0" x2="0" y2="1">
      <stop offset="0%" stop-color="#F7A8B8" />
      <stop offset="100%" stop-color="#FB7185" />
    </linearGradient>
    <linearGradient id="bellyGrad" x1="0" y1="0" x2="0" y2="1">
      <stop offset="0%" stop-color="#FFFFFF" />
      <stop offset="100%" stop-color="#E2E8F0" />
    </linearGradient>
  </defs>
  <rect width="480" height="520" rx="48" fill="url(#bgGrad)" />
  <g transform="translate(240 220)">
  <path d="M-160 -20 C-140 -160 140 -160 160 -20 C180 140 60 220 0 220 C-60 220 -180 140 -160 -20" fill="#0F172A" />
  <ellipse cx="0" cy="40" rx="120" ry="140" fill="#1E293B" />
  <path d="M-88 -80 Q-40 -140 0 -120 Q40 -140 88 -80" fill="#1E293B" />
  <path d="M-96 -84 Q-60 -160 -8 -132 L-8 -40 Z" fill="url(#hairLeft)" />
  <path d="M96 -84 Q60 -160 8 -132 L8 -40 Z" fill="url(#hairRight)" />
  <ellipse cx="-44" cy="-8" rx="26" ry="32" fill="#FFFFFF" />
  <ellipse cx="44" cy="-8" rx="26" ry="32" fill="#FFFFFF" />
  <circle cx="-44" cy="-4" r="14" fill="#0F172A" />
  <circle cx="44" cy="-4" r="14" fill="#0F172A" />
  <circle cx="-40" cy="-8" r="6" fill="#FFFFFF" opacity="0.7" />
  <circle cx="48" cy="-10" r="6" fill="#FFFFFF" opacity="0.7" />
  <path d="M0 12 L-18 32 Q0 44 18 32 Z" fill="#F472B6" />
  <path d="M0 32 L-16 52 Q0 60 16 52 Z" fill="#FBEAED" />
  <path d="M0 46 Q-32 78 0 86 Q32 78 0 46" fill="#FCA5A5" />
  <ellipse cx="0" cy="74" rx="70" ry="82" fill="url(#bellyGrad)" />
  <path d="M-128 48 Q-176 56 -176 120 Q-128 112 -104 80" fill="#F7A8B8" />
  <path d="M128 48 Q176 56 176 120 Q128 112 104 80" fill="#55CDFC" />
  <circle cx="-100" cy="94" r="18" fill="#FDE68A" opacity="0.85" />
  <circle cx="100" cy="94" r="18" fill="#FDE68A" opacity="0.85" />
  </g>
  <g transform="translate(90 420)" font-family="'Fira Sans', 'Inter', 'Segoe UI', sans-serif" font-size="42" fill="#E0E7FF" letter-spacing="6">
  <text>NIXIE</text>
  </g>
  <g transform="translate(90 468)" font-family="'Fira Sans', 'Inter', 'Segoe UI', sans-serif" font-size="20" fill="#A5B4FC">
  <text>Declarative · Sourceful · Herself</text>
  </g>
</svg>
